<svg xmlns="http://www.w3.org/2000/svg" width="56" height="44.48" viewBox="0 0 56 44.48">
  <g id="Group_1" data-name="Group 1" transform="translate(-700 -371.159)">
    <path id="color_x5F_3" d="M26.269,47.995H28v-.957H23.667a.941.941,0,1,1,0-1.882H28V44.1H23.667a.941.941,0,1,1,0-1.882H28V41.171h-.53V30.185H28V28.5h-.53V27.347a2.838,2.838,0,1,0-2.838,2.838h1.155V41.171H23.458a1.381,1.381,0,0,1-1.364-1.086,11.308,11.308,0,0,0-2.511-4.67h0a13.368,13.368,0,0,1,7.158-23.7c-2.722-2.783-10.222-8.133-25.864-5A1.1,1.1,0,0,0,0,7.788v37.02a1.1,1.1,0,0,0,1.3,1.076c13.031-2.5,20.325.922,23.883,3.7a1.726,1.726,0,0,0,1.6.3,2.247,2.247,0,0,1-.962-1.331.453.453,0,0,1,.448-.558ZM24.631,28.5a1.154,1.154,0,1,1,1.155-1.154V28.5Z" transform="translate(700 365.4)" fill="#662d91"/>
    <path id="color_x5F_2" d="M55.121,6.711c-15.644-3.13-23.144,2.222-25.866,5.008a13.367,13.367,0,0,1,7.159,23.7h0a11.309,11.309,0,0,0-2.511,4.67,1.382,1.382,0,0,1-1.364,1.086H30.213V30.185h1.154a2.838,2.838,0,1,0-2.838-2.838V28.5H28v1.684h.53V41.171H28v1.052h4.332a.941.941,0,0,1,0,1.882H28v1.052h4.332a.941.941,0,0,1,0,1.882H28V48h1.73a.453.453,0,0,1,.445.556,2.248,2.248,0,0,1-.961,1.331,1.726,1.726,0,0,0,1.6-.3c3.558-2.781,10.852-6.206,23.883-3.7A1.1,1.1,0,0,0,56,44.808V7.788a1.1,1.1,0,0,0-.879-1.077ZM30.213,27.347A1.154,1.154,0,1,1,31.367,28.5H30.213Z" transform="translate(700 365.4)" fill="#93278f"/>
    <path id="color_x5F_1" d="M33.273,43.164a.941.941,0,0,1-.941.941H23.667a.941.941,0,1,1,0-1.882h8.665a.941.941,0,0,1,.941.941Zm-.941,1.993H23.667a.941.941,0,1,0,0,1.882h8.665a.941.941,0,1,0,0-1.882ZM29.732,48H26.269a.453.453,0,0,0-.445.556,2.246,2.246,0,0,0,4.351,0,.453.453,0,0,0-.445-.556Zm2.792-20.648a1.154,1.154,0,0,0-2.309,0V28.5h1.154a1.156,1.156,0,0,0,1.153-1.153Zm-7.891-1.154a1.154,1.154,0,0,0,0,2.308h1.155V27.347a1.156,1.156,0,0,0-1.157-1.154ZM28,41.171h.53V30.185H27.469V41.171ZM41.368,25.029a13.37,13.37,0,0,0-12.111-13.31,13.625,13.625,0,0,0-2.2-.026q-.155.011-.31.025a13.368,13.368,0,0,0-7.158,23.7h0a11.308,11.308,0,0,1,2.511,4.67,1.381,1.381,0,0,0,1.364,1.086h2.328V30.185h-1.16a2.838,2.838,0,1,1,2.838-2.838V28.5H28.53V27.347a2.838,2.838,0,1,1,2.838,2.838H30.213V41.171H32.54A1.381,1.381,0,0,0,33.9,40.085a11.308,11.308,0,0,1,2.511-4.67h0A13.34,13.34,0,0,0,41.368,25.029Z" transform="translate(700 365.4)" fill="#fff"/>
  </g>
</svg>
